<svg width="24" height="25" viewBox="0 0 24 25" fill="none" xmlns="http://www.w3.org/2000/svg">
<path d="M10 13.1216C10.4295 13.6848 10.9774 14.1464 11.6066 14.4742C12.2357 14.802 12.9315 14.9882 13.6467 15.0192C14.3618 15.0502 15.0718 14.9253 15.7282 14.6533C16.3846 14.3813 16.9722 13.969 17.45 13.4466L20.45 10.4466C21.3139 9.54536 21.7932 8.34066 21.7808 7.08876C21.7684 5.83686 21.2653 4.64193 20.3833 3.7579C19.5013 2.87387 18.309 2.36886 17.0597 2.35443C15.8104 2.34001 14.6081 2.81743 13.708 3.67958L11.87 5.50658" stroke="#1C212B" stroke-width="1.5" stroke-linecap="round" stroke-linejoin="round"/>
<path d="M14 11.1216C13.5705 10.5584 13.0226 10.0968 12.3934 9.76896C11.7643 9.44117 11.0685 9.25497 10.3533 9.22399C9.63819 9.19301 8.92824 9.31786 8.27184 9.58988C7.61544 9.8619 7.02779 10.2742 6.55 10.7966L3.55 13.7966C2.68614 14.6978 2.20684 15.9025 2.21924 17.1544C2.23164 18.4063 2.73474 19.6013 3.61674 20.4853C4.49874 21.3693 5.69104 21.8743 6.94034 21.8888C8.18964 21.9032 9.39194 21.4258 10.292 20.5636L12.12 18.7366" stroke="#1C212B" stroke-width="1.5" stroke-linecap="round" stroke-linejoin="round"/>
</svg>
